<?xml version="1.0" encoding="UTF-8" standalone="no"?><!DOCTYPE svg PUBLIC "-//W3C//DTD SVG 1.1//EN" "http://www.w3.org/Graphics/SVG/1.1/DTD/svg11.dtd"><svg width="100%" height="100%" viewBox="0 0 640 167" version="1.1" xmlns="http://www.w3.org/2000/svg" xmlns:xlink="http://www.w3.org/1999/xlink" xml:space="preserve" xmlns:serif="http://www.serif.com/" style="fill-rule:evenodd;clip-rule:evenodd;stroke-linecap:square;stroke-miterlimit:1.5;"><g id="レイヤー1"><path d="M202.092,41.829l-29.092,-29.092l18.809,0l16.435,16.435l11.514,0l0,12.657l-17.666,0Zm-22.412,16.435l0,-12.656l38.847,0l4.922,-4.922l0,-27.949l12.656,0l0,34.101l-11.425,11.426l-45,0Z" style="fill-rule:nonzero;"/><path d="M290.598,58.264l0,-10.986l-17.578,0l12.656,-12.569l4.922,0l0,-5.009l12.656,-12.657l0,41.221l-12.656,0Zm-50.45,0l45.528,-45.527l18.808,0l-45.527,45.527l-18.809,0Z" style="fill-rule:nonzero;"/><path d="M352.824,58.264l-23.554,-23.555l18.808,0l23.555,23.555l-18.809,0Zm-44.297,0l0,-45.527l56.426,0l0,12.656l-43.769,0l0,20.215l15.908,0l12.656,12.656l-41.221,0Z" style="fill-rule:nonzero;"/><rect x="375.324" y="12.737" width="12.656" height="45.527" style="fill-rule:nonzero;"/><path d="M403.625,58.264l-11.426,-11.426l0,-34.101l56.426,0l0,12.217l-12.656,12.656l0,-12.217l-31.114,0l0,20.215l43.77,0l0,12.656l-45,0Z" style="fill-rule:nonzero;"/><path d="M453.635,58.264l0,-34.014l12.656,-12.656l0,46.67l-12.656,0Zm38.32,0l0,-16.435l-21.885,0l0,-12.657l21.885,0l0,-16.435l12.656,0l0,45.527l-12.656,0Z" style="fill-rule:nonzero;"/><path d="M558.84,58.264l0,-10.986l-17.578,0l12.656,-12.569l4.922,0l0,-5.009l12.656,-12.657l0,41.221l-12.656,0Zm-50.449,0l45.527,-45.527l18.809,0l-45.528,45.527l-18.808,0Z" style="fill-rule:nonzero;"/><path d="M576.77,58.264l0,-41.221l12.656,12.657l0,28.564l-12.656,0Zm44.296,0l-45.527,-45.527l18.809,0l45.527,45.527l-18.809,0Zm17.579,-4.306l-12.657,-12.657l0,-28.564l12.657,0l0,41.221Z" style="fill-rule:nonzero;"/><path d="M174.436,128.406l0,-12.656l28.564,0l12.656,12.656l-41.22,0Zm44.296,0l-45.527,-45.528l18.809,0l45.527,45.528l-18.809,0Zm-10.986,-32.871l-12.656,-12.657l41.221,0l0,12.657l-28.565,0Z" style="fill-rule:nonzero;"/><path d="M269.445,111.97l-29.091,-29.092l18.808,0l16.436,16.436l11.513,0l0,12.656l-17.666,0Zm-22.412,16.436l0,-12.656l38.848,0l4.922,-4.922l0,-27.95l12.656,0l0,34.102l-11.426,11.426l-45,0Z" style="fill-rule:nonzero;"/><path d="M308.732,128.406l0,-12.656l28.565,0l12.656,12.656l-41.221,0Zm44.297,0l-45.527,-45.528l18.809,0l45.527,45.528l-18.809,0Zm-10.986,-32.871l-12.656,-12.657l41.22,0l0,12.657l-28.564,0Z" style="fill-rule:nonzero;"/><path d="M397.766,128.406l0,-29.092l12.656,0l0,29.092l-12.656,0Zm-21.885,-32.871l0,-12.657l57.568,0l-12.656,12.657l-44.912,0Z" style="fill-rule:nonzero;"/><path d="M442.502,111.97l0,-12.656l23.643,0l0,12.656l-23.643,0Zm-16.348,16.436l0,-34.014l11.426,-11.514l45,0l0,12.657l-43.769,0l0,20.215l44.912,0l-12.657,12.656l-44.912,0Z" style="fill-rule:nonzero;"/><path d="M488.029,128.406l0,-41.221l12.657,12.656l0,28.565l-12.657,0Zm44.209,0l-45.439,-45.528l18.808,0l45.44,45.528l-18.809,0Zm43.858,0l-31.641,-31.641l0,21.885l-12.656,-12.656l0,-23.116l17.578,0l45.527,45.528l-18.808,0Z" style="fill-rule:nonzero;"/><path d="M163,60l-25,0l0,76l-48.549,27.69l-10.141,-17.239l38.69,-22.451l0,-64l-70,0l0,-20l115,0l0,20Zm-75.858,60l-64.142,0l0,-120l64.142,0c8.619,8.619 17.239,17.239 25.858,25.858l0,9.142l-20,0l0,-0.858l-14.142,-14.142l-35.858,0l0,80l35.858,0l14.142,-14.142l0,-20.858l20,0l0,29.142l-25.858,25.858Zm-69.142,-60l-15,0l0,-20l15,0l0,20Z"/><path d="M80,151l9,15l47,-27" style="fill:none;stroke:#000;stroke-width:1px;"/><path d="M46,22l32,0l10,10" style="fill:none;stroke:#000;stroke-width:1px;"/><path d="M21,6l0,116l63,0" style="fill:none;stroke:#000;stroke-width:1px;"/><path d="M1,45l0,17l10,0" style="fill:none;stroke:#000;stroke-width:1px;"/><path d="M46,46l0,16l70,0" style="fill:none;stroke:#000;stroke-width:1px;"/><path d="M91,68l0,17" style="fill:none;stroke:#000;stroke-width:1px;"/></g></svg>